<svg width="128" height="108" viewBox="0 0 128 108" fill="none" xmlns="http://www.w3.org/2000/svg">
<path d="M19 58.5V83.8C19 87.7204 19 89.6806 19.763 91.1779C20.4341 92.4951 21.5049 93.5659 22.8221 94.237C24.3194 95 26.2796 95 30.2 95H114.8C118.72 95 120.681 95 122.178 94.237C123.495 93.5659 124.566 92.4951 125.237 91.1779C126 89.6806 126 87.7204 126 83.8V19.2C126 15.2796 126 13.3194 125.237 11.8221C124.566 10.5049 123.495 9.43407 122.178 8.76295C120.681 8 118.72 8 114.8 8H30.2C26.2796 8 24.3194 8 22.8221 8.76295C21.5049 9.43407 20.4341 10.5049 19.763 11.8221C19 13.3194 19 15.2796 19 19.2V40" stroke="white" stroke-width="4"/>
<path d="M62 50L52 59.3782L62 68" stroke="white" stroke-width="4.02542" stroke-linecap="round" stroke-linejoin="round"/>
<path d="M83 50L93 59.3782L83 68" stroke="white" stroke-width="4.02542" stroke-linecap="round" stroke-linejoin="round"/>
<line x1="77.0154" y1="47.5797" x2="68.3534" y2="71.3785" stroke="white" stroke-width="4.02542" stroke-linecap="round" stroke-linejoin="round"/>
<path d="M26 42H3V60H26" stroke="white" stroke-width="4" stroke-linecap="round" stroke-linejoin="round"/>
<path d="M26 41.5V32L47 51.5L26 71L26 61" stroke="white" stroke-width="4" stroke-linecap="round" stroke-linejoin="round"/>
<line x1="21" y1="22" x2="126" y2="22" stroke="white" stroke-width="4"/>
<circle cx="29" cy="15" r="2.5" fill="white" stroke="white"/>
<circle cx="38" cy="15" r="2.5" fill="white" stroke="white"/>
<circle cx="47" cy="15" r="2.5" fill="white" stroke="white"/>
</svg>
