<svg width="26" height="22" viewBox="0 0 26 22" fill="none" xmlns="http://www.w3.org/2000/svg">
<path d="M24.6717 4.5L24.5034 5.2309L24.509 5.23214L24.6717 4.5ZM24.6717 20.5L24.3711 21.1871C24.585 21.2807 24.8304 21.2693 25.0347 21.1562C25.2391 21.0432 25.3791 20.8414 25.4135 20.6104L24.6717 20.5ZM24.509 5.23214C24.2249 5.169 24.0897 4.96962 24.061 4.92608C24.0175 4.86017 23.9985 4.80586 23.9942 4.79358C23.9839 4.76383 23.9851 4.7572 23.992 4.7969C24.0043 4.86732 24.0192 4.99208 24.0344 5.17922C24.0642 5.5469 24.0898 6.08272 24.1104 6.74478C24.1515 8.0651 24.1718 9.8474 24.1712 11.7008C24.1707 13.5534 24.1494 15.4709 24.1079 17.0605C24.0658 18.6713 24.0038 19.8926 23.9299 20.3896L25.4135 20.6104C25.5037 20.0046 25.566 18.6838 25.6073 17.0996C25.6493 15.4942 25.6707 13.5635 25.6712 11.7012C25.6718 9.83965 25.6515 8.04018 25.6097 6.6981C25.5889 6.02897 25.5624 5.46343 25.5295 5.05787C25.5133 4.85839 25.4941 4.67855 25.4697 4.5387C25.4582 4.47327 25.4404 4.38507 25.4103 4.29888C25.3962 4.25838 25.3671 4.18213 25.3135 4.10074C25.2746 4.04172 25.129 3.83334 24.8344 3.76786L24.509 5.23214ZM24.9723 19.8129C23.5528 19.1918 21.0614 18.5799 18.7138 18.1735C17.53 17.9685 16.3599 17.8119 15.3517 17.732C14.3669 17.654 13.4634 17.6425 12.8529 17.7646L13.1471 19.2354C13.5366 19.1575 14.2587 19.1501 15.2332 19.2273C16.1843 19.3027 17.3071 19.4523 18.4579 19.6515C20.7795 20.0534 23.1239 20.6415 24.3711 21.1871L24.9723 19.8129ZM22.3317 4.73088L24.5034 5.23088L24.84 3.76912L22.6683 3.26912L22.3317 4.73088Z" fill="white"/>
<path d="M22.1719 17.2944V1C18.0002 1.29441 15.5002 3.22314 13.1719 4.99999L13.1719 18.2944C13.1719 18.2944 18.0002 15.7944 22.1719 17.2944Z" stroke="white" stroke-width="1.5" stroke-linecap="round" stroke-linejoin="round"/>
<path d="M1.24963 4.5L1.08693 3.76786L1.08696 3.76785L1.24963 4.5ZM1.24963 20.5L1.55025 21.1871C1.33629 21.2807 1.09093 21.2693 0.886576 21.1562C0.68222 21.0432 0.542192 20.8414 0.507808 20.6104L1.24963 20.5ZM1.41234 5.23214C1.69645 5.169 1.83165 4.96962 1.86034 4.92608C1.90378 4.86017 1.92279 4.80586 1.92708 4.79358C1.93748 4.76383 1.93622 4.7572 1.92928 4.7969C1.91698 4.86732 1.90212 4.99208 1.88693 5.17922C1.85709 5.5469 1.83151 6.08272 1.81089 6.74478C1.76978 8.0651 1.74956 9.8474 1.75011 11.7008C1.75066 13.5534 1.77195 15.4709 1.81347 17.0605C1.85554 18.6713 1.91749 19.8926 1.99146 20.3896L0.507808 20.6104C0.417628 20.0046 0.355358 18.6838 0.313981 17.0996C0.27205 15.4942 0.25066 13.5635 0.25011 11.7012C0.24956 9.83965 0.269831 8.04018 0.31162 6.6981C0.332455 6.02897 0.358929 5.46343 0.391845 5.05787C0.408035 4.85839 0.427233 4.67855 0.451672 4.5387C0.463105 4.47327 0.480895 4.38507 0.511004 4.29888C0.525154 4.25838 0.554194 4.18213 0.607827 4.10074C0.646714 4.04172 0.792283 3.83334 1.08693 3.76786L1.41234 5.23214ZM0.949019 19.8129C2.36946 19.1914 4.88154 18.5795 7.24792 18.1733C8.44141 17.9684 9.62112 17.8118 10.6365 17.732C11.628 17.654 12.5365 17.6425 13.1471 17.7646L12.8529 19.2354C12.4635 19.1575 11.7366 19.1501 10.754 19.2274C9.79536 19.3028 8.66248 19.4524 7.50171 19.6517C5.15958 20.0538 2.79647 20.6419 1.55025 21.1871L0.949019 19.8129ZM3.66267 4.73215L1.41231 5.23215L1.08696 3.76785L3.33733 3.26785L3.66267 4.73215Z" fill="white"/>
<path d="M3.75 17.2944V1C7.92169 1.29441 10.4217 3.22314 12.75 4.99999L12.75 18.2944C12.75 18.2944 7.92169 15.7944 3.75 17.2944Z" stroke="white" stroke-width="1.5" stroke-linecap="round" stroke-linejoin="round"/>
</svg>
