<svg width="17" height="21" viewBox="0 0 17 21" fill="none" xmlns="http://www.w3.org/2000/svg">
<path d="M16 13.5714V1L6 5.04762V18.5" stroke="white" stroke-width="1.5" stroke-linecap="round" stroke-linejoin="round"/>
<path d="M16 13V5L6 9.04762L6.00001 17.5714" stroke="white" stroke-width="1.5" stroke-linecap="round" stroke-linejoin="round"/>
<path d="M6 18.5C6 19.319 5.1015 20.25 3.625 20.25C2.1485 20.25 1.25 19.319 1.25 18.5C1.25 17.681 2.1485 16.75 3.625 16.75C5.1015 16.75 6 17.681 6 18.5Z" stroke="white" stroke-width="1.5"/>
<path d="M16 13.5C16 14.319 15.1015 15.25 13.625 15.25C12.1485 15.25 11.25 14.319 11.25 13.5C11.25 12.681 12.1485 11.75 13.625 11.75C15.1015 11.75 16 12.681 16 13.5Z" stroke="white" stroke-width="1.5"/>
</svg>
