<svg viewBox="0 0 23 30" fill="white" stroke="none" xmlns="http://www.w3.org/2000/svg">
<path d="M10.9,16.1c0,0-1.7-3.2-1.6-5.6c0-1.7,3.8-3.3,5.3-5.8C16.1,2.4,14.4,0,14.4,0s0.4,1.7-0.6,3.5 c-1,1.8-4.7,2.9-6.1,5.9S10.9,16.1,10.9,16.1z"/>
<path d="M17.1,6.3c0,0-5.7,2.2-5.7,4.6c0,2.5,1.5,3.3,1.8,4.1c0.2,0.8-0.4,2.2-0.4,2.2s2.2-1.5,1.9-3.3 c-0.4-1.8-2.1-2.4-1.1-4.2C14.2,8.5,17.1,6.3,17.1,6.3z"/>
<path d="M10.3,19.4c5.3-0.2,7.2-1.9,7.2-1.9C14,18.5,5,18.4,4.9,17.7c-0.1-0.7,2.8-1.2,2.8-1.2s-4.5,0-4.8,1.1 C2.5,18.7,5,19.6,10.3,19.4z"/>
<path d="M17.9,22c0,0,5.2-1.1,4.6-3.9c-0.6-3.4-4.2-1.5-4.2-1.5s2.5,0,2.8,1.5C21.3,19.7,17.9,22,17.9,22z"/>
<path d="M15.3,20.5c0,0-1.3,0.3-3.2,0.6c-2.6,0.3-5.7,0.1-5.9-0.4C5.9,20.3,6.6,20,6.6,20c-3.1,0.7-1.4,2,2.2,2.3 c3.1,0.2,7.7-0.9,7.7-0.9L15.3,20.5z"/>
<path d="M7.3,23.2c0,0-1.4,0-1.5,0.8c-0.1,0.7,0.9,1.4,4.3,1.6c3.5,0.2,5.9-0.9,5.9-0.9l-1.6-1c0,0-1,0.2-2.5,0.4 c-1.5,0.2-4.7-0.2-4.8-0.5C7.1,23.4,7.3,23.2,7.3,23.2z"/>
<path d="M20.9,26.6c0.5-0.6-0.2-1-0.2-1s0.2,0.3-0.1,0.6c-0.3,0.3-3.3,1.2-8.2,1.4c-4.8,0.2-10.1-0.5-10.2-1.1 c-0.2-0.6,2.7-1.1,2.7-1.1c-0.3,0-4.3,0.1-4.4,1.2c-0.1,1.1,1.7,1.9,9.2,1.9C17.1,28.5,20.3,27.1,20.9,26.6z"/>
<path d="M18,29c-3.3,0.7-13.2,0.2-13.2,0.2s6.4,1.5,13.8,0.2c3.5-0.6,3.7-2.3,3.7-2.3S21.2,28.3,18,29z"/>
</svg>