<svg width="65" height="50" viewBox="0 0 65 50" fill="none" xmlns="http://www.w3.org/2000/svg">
<path d="M35.1406 13.2114C35.1406 9.28184 36.4271 6.09756 39 3.65854C41.7083 1.21951 45.0938 0 49.1562 0C54.0312 0 57.8906 1.62602 60.7344 4.87805C63.5781 8.13008 65 12.3984 65 17.6829C65 23.103 64.1198 27.71 62.3594 31.5041C60.7344 35.2981 58.7031 38.4824 56.2656 41.0569C53.9635 43.4959 51.4583 45.4607 48.75 46.9512C46.1771 48.3062 44.0104 49.3225 42.25 50L35.5469 38.8211C38.2552 37.6016 40.625 35.9756 42.6562 33.9431C44.8229 31.9106 46.0417 29.336 46.3125 26.2195C43.6042 26.355 41.0313 25.3388 38.5938 23.1707C36.2917 20.8672 35.1406 17.5474 35.1406 13.2114ZM0 13.2114C0 9.28184 1.28646 6.09756 3.85938 3.65854C6.56771 1.21951 9.95313 0 14.0156 0C18.8906 0 22.75 1.62602 25.5938 4.87805C28.4375 8.13008 29.8594 12.3984 29.8594 17.6829C29.8594 23.103 28.9792 27.71 27.2188 31.5041C25.5938 35.2981 23.5625 38.4824 21.125 41.0569C18.8229 43.4959 16.3177 45.4607 13.6094 46.9512C11.0365 48.3062 8.86979 49.3225 7.10938 50L0.40625 38.8211C3.11458 37.6016 5.48438 35.9756 7.51562 33.9431C9.68229 31.9106 10.901 29.336 11.1719 26.2195C8.46354 26.355 5.89063 25.3388 3.45313 23.1707C1.15104 20.8672 0 17.5474 0 13.2114Z" fill="#1644E8"/>
</svg>
