<svg width="25" height="23" viewBox="0 0 25 23" fill="none" xmlns="http://www.w3.org/2000/svg">
<mask id="path-1-outside-1" maskUnits="userSpaceOnUse" x="3" y="0" width="19" height="19" fill="black">
<rect fill="white" x="3" width="19" height="19"/>
<path d="M5 13.6429L5 5.35714C10.8228 5.16603 14.1095 4.33863 20 2V17C14.1483 14.3131 10.8641 13.4977 5 13.6429Z"/>
</mask>
<path d="M5 13.6429H3.5C3.5 14.0471 3.66317 14.4343 3.95254 14.7166C4.24191 14.9989 4.63297 15.1524 5.03711 15.1424L5 13.6429ZM5 5.35714L4.95079 3.85795C4.14196 3.8845 3.5 4.54787 3.5 5.35714H5ZM20 2H21.5C21.5 1.50295 21.2538 1.03817 20.8425 0.758982C20.4313 0.47979 19.9085 0.422443 19.4465 0.605858L20 2ZM20 17L19.3741 18.3632C19.8385 18.5764 20.3795 18.5385 20.8097 18.2627C21.2398 17.9869 21.5 17.511 21.5 17H20ZM6.5 13.6429L6.5 5.35714H3.5L3.5 13.6429H6.5ZM5.04921 6.85634C11.0824 6.65831 14.5413 5.78112 20.5535 3.39414L19.4465 0.605858C13.6778 2.89615 10.5632 3.67374 4.95079 3.85795L5.04921 6.85634ZM18.5 2V17H21.5V2H18.5ZM20.6259 15.6368C17.6616 14.2757 15.2701 13.3519 12.8384 12.797C10.3953 12.2395 7.97631 12.0687 4.96289 12.1433L5.03711 15.1424C7.88775 15.0719 10.043 15.2362 12.1709 15.7218C14.3102 16.21 16.4867 17.0374 19.3741 18.3632L20.6259 15.6368Z" fill="white" mask="url(#path-1-outside-1)"/>
<path d="M4 7H2C1.44772 7 1 7.44772 1 8V11C1 11.5523 1.44772 12 2 12H4" stroke="white" stroke-width="1.5" stroke-linejoin="round"/>
<path d="M20 14C22.2091 14 24 11.9853 24 9.5C24 7.01472 22.2091 5 20 5" stroke="white" stroke-width="1.5"/>
<line x1="8.75" y1="5" x2="8.75" y2="15" stroke="white" stroke-width="1.5"/>
<path d="M5 15H8.6L10 22H6.4L5 15Z" stroke="white" stroke-width="1.5" stroke-linecap="round" stroke-linejoin="round"/>
</svg>
