<svg width="131" height="108" viewBox="0 0 131 108" fill="none" xmlns="http://www.w3.org/2000/svg">
<path d="M2 98.6C2 100.84 2 101.96 2.43597 102.816C2.81947 103.569 3.43139 104.181 4.18404 104.564C5.03969 105 6.15979 105 8.4 105H122.6C124.84 105 125.96 105 126.816 104.564C127.569 104.181 128.181 103.569 128.564 102.816C129 101.96 129 100.84 129 98.6V95H2V98.6Z" fill="none" stroke="#1644E8" stroke-width="4"/>
<rect x="8" y="8" width="116" height="87" rx="7" fill="none" stroke="#1644E8" stroke-width="4"/>
<rect x="17" y="17" width="98" height="70" rx="4" fill="none" stroke="#1644E8" stroke-width="4"/>
<path d="M66 25L72.5109 45.0385L93.5806 45.0385L76.5349 57.423L83.0458 77.4615L66 65.077L48.9542 77.4615L55.4651 57.423L38.4194 45.0385L59.4891 45.0385L66 25Z" fill="none" stroke="#1644E8" stroke-width="4" stroke-linecap="round" stroke-linejoin="round"/>
</svg>
