<svg width="128" height="108" viewBox="0 0 128 108" fill="none" xmlns="http://www.w3.org/2000/svg">
<rect x="2" y="15" width="116" height="80" rx="10" fill="none" stroke="#1644E8" stroke-width="4"/>
<rect x="90" y="44" width="15" height="12" rx="3" fill="none" stroke="#1644E8" stroke-width="4"/>
<rect x="65" y="44" width="15" height="12" rx="3" fill="none" stroke="#1644E8" stroke-width="4"/>
<rect x="40" y="44" width="15" height="12" rx="3" fill="none" stroke="#1644E8" stroke-width="4"/>
<rect x="15" y="44" width="15" height="12" rx="3" fill="none" stroke="#1644E8" stroke-width="4"/>
<rect x="90" y="66" width="15" height="12" rx="3" fill="none" stroke="#1644E8" stroke-width="4"/>
<rect x="65" y="66" width="15" height="12" rx="3" fill="none" stroke="#1644E8" stroke-width="4"/>
<rect x="40" y="66" width="15" height="12" rx="3" fill="none" stroke="#1644E8" stroke-width="4"/>
<rect x="15" y="66" width="15" height="12" rx="3" fill="none" stroke="#1644E8" stroke-width="4"/>
<line x1="2" y1="34" x2="118" y2="34" stroke="#1644E8" stroke-width="4"/>
<line x1="18" y1="9" x2="18" y2="21" stroke="#1644E8" stroke-width="6" stroke-linecap="round" stroke-linejoin="round"/>
<line x1="32" y1="9" x2="32" y2="21" stroke="#1644E8" stroke-width="6" stroke-linecap="round" stroke-linejoin="round"/>
<line x1="46" y1="9" x2="46" y2="21" stroke="#1644E8" stroke-width="6" stroke-linecap="round" stroke-linejoin="round"/>
<line x1="60" y1="9" x2="60" y2="21" stroke="#1644E8" stroke-width="6" stroke-linecap="round" stroke-linejoin="round"/>
<line x1="74" y1="9" x2="74" y2="21" stroke="#1644E8" stroke-width="6" stroke-linecap="round" stroke-linejoin="round"/>
<line x1="88" y1="9" x2="88" y2="21" stroke="#1644E8" stroke-width="6" stroke-linecap="round" stroke-linejoin="round"/>
<line x1="102" y1="9" x2="102" y2="21" stroke="#1644E8" stroke-width="6" stroke-linecap="round" stroke-linejoin="round"/>
<circle cx="110" cy="90" r="16" fill="#ffffff" stroke="#1644E8" stroke-width="4"/>
<path d="M110 80V90.5L117 95" stroke="#1644E8" stroke-width="4" stroke-linecap="round" stroke-linejoin="round"/>
</svg>
