<svg viewBox="0 0 23 22" fill="none" xmlns="http://www.w3.org/2000/svg">
<path d="M14.4382 1.16122C17.9163 7.80126 16.6779 10.7787 15.6239 11.4375C15.6239 11.4375 13.3293 8.90507 11.6715 7.48507C9.39534 5.53549 5.34764 3.13743 5.34764 3.13743C5.34764 4.32314 10.0905 9.44632 10.0905 9.44632C8.11433 9.05108 2.9762 4.71839 2.9762 5.11363C5.74288 11.0422 13.2524 15.3899 12.8572 15.3899C8.11433 17.287 2.9762 15.1264 1 13.8089C10.881 25.2709 17.6001 18.5518 18.7858 18.1566C19.9715 17.7613 21.9477 20.9232 21.9477 20.528C22.343 15.7851 20.3668 15.7851 20.3668 15.3899C23.5287 8.27555 14.4382 0.765984 14.4382 1.16122Z" stroke="white" stroke-width="1.2" stroke-linecap="round" stroke-linejoin="round"/>
</svg>