<svg width="65" height="50" viewBox="0 0 65 50" fill="none" xmlns="http://www.w3.org/2000/svg">
<path d="M29.8594 36.7886C29.8594 40.7182 28.5729 43.9024 26 46.3415C23.2917 48.7805 19.9062 50 15.8438 50C10.9688 50 7.10937 48.374 4.26562 45.122C1.42187 41.8699 0 37.6016 0 32.3171C0 26.897 0.880203 22.29 2.64062 18.4959C4.26562 14.7019 6.29688 11.5176 8.73437 8.94309C11.0365 6.50407 13.5417 4.5393 16.25 3.04878C18.8229 1.69377 20.9896 0.677509 22.75 3.8147e-06L29.4531 11.1789C26.7448 12.3984 24.375 14.0244 22.3438 16.0569C20.1771 18.0894 18.9583 20.664 18.6875 23.7805C21.3958 23.645 23.9687 24.6612 26.4062 26.8293C28.7083 29.1328 29.8594 32.4526 29.8594 36.7886ZM65 36.7886C65 40.7182 63.7135 43.9024 61.1406 46.3415C58.4323 48.7805 55.0469 50 50.9844 50C46.1094 50 42.25 48.374 39.4062 45.122C36.5625 41.8699 35.1406 37.6016 35.1406 32.3171C35.1406 26.897 36.0208 22.29 37.7812 18.4959C39.4062 14.7019 41.4375 11.5176 43.875 8.94309C46.1771 6.50407 48.6823 4.5393 51.3906 3.04878C53.9635 1.69377 56.1302 0.677509 57.8906 3.8147e-06L64.5937 11.1789C61.8854 12.3984 59.5156 14.0244 57.4844 16.0569C55.3177 18.0894 54.099 20.664 53.8281 23.7805C56.5365 23.645 59.1094 24.6612 61.5469 26.8293C63.849 29.1328 65 32.4526 65 36.7886Z" fill="#1644E8"/>
</svg>
