<svg width="18" height="21" viewBox="0 0 18 21" fill="none" xmlns="http://www.w3.org/2000/svg">
<mask id="path-1-outside-1" maskUnits="userSpaceOnUse" x="0" y="5" width="18" height="16" fill="black">
<rect fill="white" y="5" width="18" height="16"/>
<path d="M3.46154 7H14.5385L16 19H2L3.46154 7Z"/>
</mask>
<path d="M3.46154 7V5.5C2.70325 5.5 2.06422 6.06592 1.97254 6.81865L3.46154 7ZM14.5385 7L16.0275 6.81865C15.9358 6.06592 15.2968 5.5 14.5385 5.5V7ZM16 19V20.5C16.4294 20.5 16.8382 20.316 17.1229 19.9945C17.4076 19.673 17.5409 19.2449 17.489 18.8186L16 19ZM2 19L0.511003 18.8186C0.459086 19.2449 0.592352 19.673 0.877051 19.9945C1.16175 20.316 1.57058 20.5 2 20.5L2 19ZM3.46154 8.5H14.5385V5.5H3.46154V8.5ZM13.0495 7.18135L14.511 19.1814L17.489 18.8186L16.0275 6.81865L13.0495 7.18135ZM16 17.5H2V20.5H16V17.5ZM3.489 19.1814L4.95054 7.18135L1.97254 6.81865L0.511003 18.8186L3.489 19.1814Z" fill="white" mask="url(#path-1-outside-1)"/>
<path d="M6 9V4C6 2.34315 7.34315 1 9 1V1C10.6569 1 12 2.34315 12 4V9" stroke="white" stroke-width="1.5" stroke-linecap="round" stroke-linejoin="round"/>
</svg>
