<?xml version="1.0" encoding="utf-8"?>
<!-- Generator: Adobe Illustrator 23.0.1, SVG Export Plug-In . SVG Version: 6.00 Build 0)  -->
<svg version="1.1" id="Слой_1" xmlns="http://www.w3.org/2000/svg" xmlns:xlink="http://www.w3.org/1999/xlink" x="0px" y="0px"
	 viewBox="0 0 129 108" style="enable-background:new 0 0 129 108;" xml:space="preserve">
<style type="text/css">
	.st0{fill:none;stroke:#1644E8;stroke-width:4;}
	.st1{fill:none;stroke:#1644E8;stroke-width:4;stroke-linecap:round;stroke-linejoin:round;}
	.st2{fill:#1644E8;stroke:#1644E8;stroke-width:0.443;}
</style>
<circle class="st0" cx="15.4" cy="31.1" r="8.6"/>
<path class="st1" d="M17.4,55.3v9.5c0,2.5,0,3.7,0.5,4.7c0.4,0.8,1.1,1.5,1.9,1.9c0.9,0.5,2.2,0.5,4.7,0.5h7.8c2.5,0,3.7,0,4.7,0.5
	c0.8,0.4,1.5,1.1,1.9,1.9c0.5,0.9,0.5,2.2,0.5,4.7v20.6c0,0.2,0,0.3,0,0.4c-0.1,2.3-1.9,4.2-4.3,4.3c-0.1,0-0.2,0-0.4,0l0,0
	c-0.2,0-0.3,0-0.4,0c-2.3-0.1-4.2-1.9-4.3-4.3c0-0.1,0-0.2,0-0.4V86.3c0-2.3-1.9-4.2-4.2-4.2l0,0H8.5 M40.9,71.9h1
	c0.1,0,0.2,0,0.2,0c2.4,0,4.3-2,4.3-4.3c0,0,0-0.1,0-0.2l0,0c0-0.1,0-0.2,0-0.2c0-2.4-2-4.3-4.3-4.3c0,0-0.1,0-0.2,0h-9
	c-2.5,0-3.7,0-4.7-0.5c-0.8-0.4-1.5-1.1-1.9-1.9c-0.5-0.9-0.5-2.2-0.5-4.7v-6c0-2.5,0-3.7-0.5-4.7c-0.4-0.8-1.1-1.5-1.9-1.9
	c-0.9-0.5-2.2-0.5-4.7-0.5H9.4c-2.5,0-3.7,0-4.7,0.5c-0.8,0.4-1.5,1.1-1.9,1.9c-0.5,0.9-0.5,2.2-0.5,4.7v26.1c0,1.6,0,2.5,0.2,3.1
	C3,80.4,4,81.4,5.4,81.9c0.7,0.2,1.5,0.2,3.1,0.2l0,0 M8.5,82.1v22.2"/>
<circle class="st0" cx="113.1" cy="31.1" r="8.6"/>
<circle class="st0" cx="64.1" cy="26.5" r="8.6"/>
<path class="st1" d="M111.1,55.3v9.5c0,2.5,0,3.7-0.5,4.7c-0.4,0.8-1.1,1.5-1.9,1.9c-0.9,0.5-2.2,0.5-4.7,0.5h-7.8
	c-2.5,0-3.7,0-4.7,0.5c-0.8,0.4-1.5,1.1-1.9,1.9c-0.5,0.9-0.5,2.2-0.5,4.7v20.6c0,0.2,0,0.3,0,0.4c0.1,2.3,1.9,4.2,4.3,4.3
	c0.1,0,0.2,0,0.4,0l0,0c0.2,0,0.3,0,0.4,0c2.3-0.1,4.2-1.9,4.3-4.3c0-0.1,0-0.2,0-0.4V86.3c0-2.3,1.9-4.2,4.2-4.2l0,0H120
	 M87.6,71.9h-1c-0.1,0-0.2,0-0.2,0c-2.4,0-4.3-2-4.3-4.3c0,0,0-0.1,0-0.2l0,0c0-0.1,0-0.2,0-0.2c0-2.4,2-4.3,4.3-4.3
	c0,0,0.1,0,0.2,0h9c2.5,0,3.7,0,4.7-0.5c0.8-0.4,1.5-1.1,1.9-1.9c0.5-0.9,0.5-2.2,0.5-4.7v-6c0-2.5,0-3.7,0.5-4.7
	c0.4-0.8,1.1-1.5,1.9-1.9c0.9-0.5,2.2-0.5,4.7-0.5h9.3c2.5,0,3.7,0,4.7,0.5c0.8,0.4,1.5,1.1,1.9,1.9c0.5,0.9,0.5,2.2,0.5,4.7v26.1
	c0,1.6,0,2.5-0.2,3.1c-0.4,1.3-1.5,2.4-2.8,2.8c-0.7,0.2-1.5,0.2-3.1,0.2l0,0 M120,82.1v22.2"/>
<path class="st1" d="M49.7,70.7L50.4,45c0.1-2.4,0.1-3.6,0.6-4.6c0.4-0.8,1.1-1.5,1.9-1.9c0.9-0.5,2.1-0.5,4.6-0.5h13.7
	c2.4,0,3.6,0,4.6,0.5c0.8,0.4,1.5,1.1,1.9,1.9c0.5,0.9,0.5,2.1,0.6,4.6L79,70.7"/>
<line class="st1" x1="104" y1="71.9" x2="33.6" y2="71.9"/>
<path class="st1" d="M88.7,79.2H39.3"/>
<path class="st0" d="M71.5,39.1c0.3,0.8,0.4,1.6,0.4,2.4c0,4-3.4,8.9-7.5,8.9c-4.2,0-7.5-4.8-7.5-8.9c0-0.9,0.2-1.7,0.4-2.4"/>
<circle class="st2" cx="64.4" cy="55.5" r="2"/>
<circle class="st2" cx="64.4" cy="64.4" r="2"/>
<line class="st1" x1="63.5" y1="103.6" x2="63.5" y2="81.4"/>
<path class="st0" d="M27.7,17.8c0,0-4.4-4.1-3.9-7c0.5-2.9,4-8.3,14.7-7.8s15.1,8.3,11,12.7s-13.9,5.1-16.8,4.4l-5.1,2.7L27.7,17.8z
	"/>
</svg>
