<svg width="215" height="41" viewBox="0 0 215 41" fill="none" xmlns="http://www.w3.org/2000/svg">
<path fill-rule="evenodd" clip-rule="evenodd" d="M7.47298 32.9754C8.95603 34.5117 10.8381 35.2791 13.1185 35.2791C15.398 35.2791 17.2801 34.5117 18.764 32.9754C20.247 31.4401 20.9894 29.4534 20.9894 27.0144C20.9894 24.5765 20.247 22.5896 18.764 21.0537C17.2801 19.518 15.398 18.75 13.1185 18.75C10.8381 18.75 8.95603 19.518 7.47298 21.0537C5.9891 22.5896 5.24757 24.5765 5.24757 27.0144C5.24757 29.4534 5.9891 31.4401 7.47298 32.9754ZM22.4883 36.2528C19.989 38.7701 16.8662 40.0291 13.1182 40.0291C9.37012 40.0291 6.24647 38.7701 3.74805 36.2528C1.2488 33.7356 0 30.6562 0 27.0144C0 23.3735 1.2488 20.2935 3.74805 17.7761C6.24647 15.2589 9.37012 14 13.1182 14C16.8662 14 19.989 15.2589 22.4883 17.7761C24.9867 20.2935 26.2363 23.3735 26.2363 27.0144C26.2363 30.6562 24.9867 33.7356 22.4883 36.2528Z" fill="white"/>
<path fill-rule="evenodd" clip-rule="evenodd" d="M20.9922 39.6489H26.2395V14.38H20.9922V39.6489Z" fill="white"/>
<path fill-rule="evenodd" clip-rule="evenodd" d="M65.8029 32.9754C67.286 34.5117 69.1681 35.2791 71.4484 35.2791C73.7279 35.2791 75.6101 34.5117 77.0939 32.9754C78.577 31.4401 79.3193 29.4534 79.3193 27.0144C79.3193 24.5765 78.577 22.5896 77.0939 21.0537C75.6101 19.518 73.7279 18.75 71.4484 18.75C69.1681 18.75 67.286 19.518 65.8029 21.0537C64.3191 22.5896 63.5775 24.5765 63.5775 27.0144C63.5775 29.4534 64.3191 31.4401 65.8029 32.9754ZM80.8203 36.2528C78.3211 38.7701 75.1982 40.0291 71.4502 40.0291C67.7021 40.0291 64.5785 38.7701 62.0801 36.2528C59.5808 33.7356 58.332 30.6562 58.332 27.0144C58.332 23.3735 59.5808 20.2935 62.0801 17.7761C64.5785 15.2589 67.7021 14 71.4502 14C75.1982 14 78.3211 15.2589 80.8203 17.7761C83.3187 20.2935 84.5684 23.3735 84.5684 27.0144C84.5684 30.6562 83.3187 33.7356 80.8203 36.2528Z" fill="white"/>
<path fill-rule="evenodd" clip-rule="evenodd" d="M96.1809 28.8196V39.6489H90.9336V14.38H96.1809V19.4625" fill="white"/>
<path fill-rule="evenodd" clip-rule="evenodd" d="M94.641 17.7756C92.3063 20.1273 91.0636 22.9703 90.9102 26.3027H96.1643C96.2967 24.1873 97.0289 22.4367 98.3658 21.0531C99.6115 19.7631 101.14 19.0168 102.949 18.8106V14.0381C99.6698 14.2571 96.8992 15.5005 94.641 17.7756Z" fill="white"/>
<path fill-rule="evenodd" clip-rule="evenodd" d="M54.2313 35.2174C52.4226 35.0112 50.8941 34.2655 49.6484 32.9749C48.1644 31.4396 47.4228 29.4529 47.4228 27.0139C47.4228 24.576 48.1644 22.589 49.6484 21.0531C50.8941 19.7631 52.4226 19.0168 54.2313 18.8106V14.0381C50.9524 14.2571 48.1818 15.5005 45.9236 17.7756C43.4244 20.2929 42.1758 23.373 42.1758 27.0139C42.1758 30.6557 43.4244 33.7351 45.9236 36.2522C48.1818 38.5273 50.9524 39.7709 54.2313 39.9899V35.2174Z" fill="white"/>
<path fill-rule="evenodd" clip-rule="evenodd" d="M41.2384 17.7756C38.9678 15.4884 36.1804 14.244 32.8789 14.0349V18.805C34.7096 19.0028 36.2555 19.751 37.5138 21.0532C38.9971 22.5891 39.7392 24.576 39.7392 27.014C39.7392 29.453 38.9971 31.4397 37.5138 32.9749C36.2555 34.2778 34.7096 35.0253 32.8789 35.2233V39.9933C36.1804 39.7842 38.9678 38.5396 41.2384 36.2523C43.7368 33.7351 44.9865 30.6557 44.9865 27.014C44.9865 23.373 43.7368 20.293 41.2384 17.7756Z" fill="white"/>
<path fill-rule="evenodd" clip-rule="evenodd" d="M114.234 33.1856C115.717 34.7219 117.599 35.4893 119.879 35.4893C122.159 35.4893 124.041 34.7219 125.524 33.1856C127.008 31.6503 127.75 29.6636 127.75 27.2246C127.75 24.7867 127.008 22.7998 125.524 21.2638C124.041 19.7282 122.159 18.9602 119.879 18.9602C117.599 18.9602 115.717 19.7282 114.234 21.2638C112.75 22.7998 112.008 24.7867 112.008 27.2246C112.008 29.6636 112.75 31.6503 114.234 33.1856ZM129.25 36.4629C126.751 38.9803 123.628 40.2392 119.88 40.2392C116.132 40.2392 113.008 38.9803 110.51 36.4629C108.011 33.9457 106.762 30.8663 106.762 27.2246C106.762 23.5836 108.011 20.5036 110.51 17.9862C113.008 15.469 116.132 14.2101 119.88 14.2101C123.628 14.2101 126.751 15.469 129.25 17.9862C131.748 20.5036 132.998 23.5836 132.998 27.2246C132.998 30.8663 131.748 33.9457 129.25 36.4629Z" fill="white"/>
<path fill-rule="evenodd" clip-rule="evenodd" d="M127.754 39.6489H133.001V14.38H127.754V39.6489Z" fill="white"/>
<path fill-rule="evenodd" clip-rule="evenodd" d="M139.763 3.82207C139 5.31945 139 7.27963 139 11.2V14.8C139 18.7204 139 20.6806 139.763 22.1779C140.434 23.4951 141.505 24.5659 142.822 25.237C144.319 26 146.28 26 150.2 26H203.8C207.72 26 209.681 26 211.178 25.237C212.495 24.5659 213.566 23.4951 214.237 22.1779C215 20.6806 215 18.7204 215 14.8V11.2C215 7.27963 215 5.31945 214.237 3.82207C213.566 2.50493 212.495 1.43407 211.178 0.762954C209.681 0 207.72 0 203.8 0H150.2C146.28 0 144.319 0 142.822 0.762954C141.505 1.43407 140.434 2.50493 139.763 3.82207ZM162.586 17.65C163.174 17.93 163.822 18.07 164.532 18.07C165.213 18.07 165.843 17.9347 166.422 17.664C167.01 17.384 167.518 17.0153 167.948 16.558C168.377 16.0913 168.708 15.5547 168.942 14.948C169.184 14.3413 169.306 13.7067 169.306 13.044C169.306 12.4187 169.189 11.8073 168.956 11.21C168.732 10.6033 168.41 10.062 167.99 9.58599C167.579 9.10999 167.08 8.72732 166.492 8.43799C165.913 8.13932 165.269 7.98999 164.56 7.98999C163.869 7.98999 163.23 8.12999 162.642 8.40999C162.063 8.68066 161.559 9.04932 161.13 9.51599C160.71 9.98266 160.378 10.5193 160.136 11.126C159.893 11.7327 159.772 12.3673 159.772 13.03C159.772 13.6647 159.884 14.2853 160.108 14.892C160.341 15.4987 160.668 16.04 161.088 16.516C161.508 16.9827 162.007 17.3607 162.586 17.65ZM161.592 14.388C161.442 13.9493 161.368 13.4967 161.368 13.03C161.368 12.582 161.438 12.1433 161.578 11.714C161.727 11.2753 161.937 10.888 162.208 10.552C162.478 10.216 162.81 9.94532 163.202 9.73999C163.594 9.52532 164.042 9.41799 164.546 9.41799C165.022 9.41799 165.451 9.52066 165.834 9.72599C166.226 9.92199 166.557 10.188 166.828 10.524C167.108 10.8507 167.322 11.2333 167.472 11.672C167.621 12.1013 167.696 12.554 167.696 13.03C167.696 13.478 167.626 13.9167 167.486 14.346C167.346 14.7753 167.14 15.1627 166.87 15.508C166.599 15.8533 166.268 16.1333 165.876 16.348C165.493 16.5533 165.05 16.656 164.546 16.656C164.06 16.656 163.622 16.558 163.23 16.362C162.838 16.1567 162.502 15.886 162.222 15.55C161.951 15.214 161.741 14.8267 161.592 14.388ZM154.478 10.846V18H156.06V8.05999H154.38L151.09 14.136L147.8 8.05999H146.12V18H147.688V10.846L150.656 16.264H151.524L154.478 10.846ZM180.841 15.438C180.841 15.8393 180.757 16.1987 180.589 16.516C180.43 16.8333 180.211 17.104 179.931 17.328C179.66 17.5427 179.338 17.7107 178.965 17.832C178.592 17.944 178.195 18 177.775 18H173.029V8.05999H178.153C178.498 8.05999 178.811 8.13466 179.091 8.28399C179.371 8.43332 179.609 8.62932 179.805 8.87199C180.001 9.10532 180.15 9.37599 180.253 9.68399C180.365 9.98266 180.421 10.286 180.421 10.594C180.421 11.0793 180.295 11.5367 180.043 11.966C179.8 12.386 179.45 12.6987 178.993 12.904C179.562 13.072 180.01 13.38 180.337 13.828C180.673 14.2667 180.841 14.8033 180.841 15.438ZM179.231 15.144C179.231 14.9387 179.194 14.7427 179.119 14.556C179.054 14.3693 178.96 14.206 178.839 14.066C178.727 13.926 178.587 13.814 178.419 13.73C178.251 13.646 178.069 13.604 177.873 13.604H174.597V16.642H177.775C177.98 16.642 178.172 16.6047 178.349 16.53C178.526 16.446 178.68 16.3387 178.811 16.208C178.942 16.068 179.044 15.9093 179.119 15.732C179.194 15.5453 179.231 15.3493 179.231 15.144ZM174.597 9.41799V12.344H177.481C177.677 12.344 177.854 12.3067 178.013 12.232C178.181 12.1573 178.326 12.0593 178.447 11.938C178.578 11.8073 178.676 11.6533 178.741 11.476C178.816 11.2987 178.853 11.1027 178.853 10.888C178.853 10.4587 178.732 10.1087 178.489 9.83799C178.246 9.55799 177.938 9.41799 177.565 9.41799H174.597ZM186.144 8.05999H184.576V18H186.144V8.05999ZM190.491 8.05999H192.059V16.614H197.393V18H190.491V8.05999ZM207.584 18V16.614H202.334V13.576H206.772V12.274H202.334V9.44599H207.458V8.05999H200.766V18H207.584Z" fill="white"/>
</svg>
