<svg width="215" height="41" viewBox="0 0 215 41" fill="none" xmlns="http://www.w3.org/2000/svg">
<path fill-rule="evenodd" clip-rule="evenodd" d="M7.47298 32.9754C8.95603 34.5117 10.8381 35.2791 13.1185 35.2791C15.398 35.2791 17.2801 34.5117 18.764 32.9754C20.247 31.4401 20.9894 29.4534 20.9894 27.0144C20.9894 24.5765 20.247 22.5896 18.764 21.0537C17.2801 19.518 15.398 18.75 13.1185 18.75C10.8381 18.75 8.95603 19.518 7.47298 21.0537C5.9891 22.5896 5.24757 24.5765 5.24757 27.0144C5.24757 29.4534 5.9891 31.4401 7.47298 32.9754ZM22.4883 36.2528C19.989 38.7701 16.8662 40.0291 13.1182 40.0291C9.37012 40.0291 6.24647 38.7701 3.74805 36.2528C1.2488 33.7356 0 30.6562 0 27.0144C0 23.3735 1.2488 20.2935 3.74805 17.7761C6.24647 15.2589 9.37012 14 13.1182 14C16.8662 14 19.989 15.2589 22.4883 17.7761C24.9867 20.2935 26.2363 23.3735 26.2363 27.0144C26.2363 30.6562 24.9867 33.7356 22.4883 36.2528V36.2528Z" fill="white"/>
<path fill-rule="evenodd" clip-rule="evenodd" d="M20.9915 39.6488H26.2387V14.3799H20.9915V39.6488Z" fill="white"/>
<path fill-rule="evenodd" clip-rule="evenodd" d="M65.802 32.9754C67.285 34.5117 69.1671 35.2791 71.4475 35.2791C73.727 35.2791 75.6091 34.5117 77.093 32.9754C78.576 31.4401 79.3184 29.4534 79.3184 27.0144C79.3184 24.5765 78.576 22.5896 77.093 21.0537C75.6091 19.518 73.727 18.75 71.4475 18.75C69.1671 18.75 67.285 19.518 65.802 21.0537C64.3181 22.5896 63.5766 24.5765 63.5766 27.0144C63.5766 29.4534 64.3181 31.4401 65.802 32.9754ZM80.8193 36.2528C78.3201 38.7701 75.1973 40.0291 71.4492 40.0291C67.7012 40.0291 64.5775 38.7701 62.0791 36.2528C59.5799 33.7356 58.3311 30.6562 58.3311 27.0144C58.3311 23.3735 59.5799 20.2935 62.0791 17.7761C64.5775 15.2589 67.7012 14 71.4492 14C75.1973 14 78.3201 15.2589 80.8193 17.7761C83.3178 20.2935 84.5674 23.3735 84.5674 27.0144C84.5674 30.6562 83.3178 33.7356 80.8193 36.2528V36.2528Z" fill="white"/>
<path fill-rule="evenodd" clip-rule="evenodd" d="M96.1796 28.8195V39.6488H90.9324V14.3799H96.1796V19.4624" fill="white"/>
<path fill-rule="evenodd" clip-rule="evenodd" d="M94.6403 17.7755C92.3056 20.1273 91.0628 22.9702 90.9094 26.3026H96.1635C96.296 24.1873 97.0282 22.4366 98.3651 21.0531C99.6108 19.7631 101.139 19.0167 102.948 18.8106V14.0381C99.669 14.2571 96.8984 15.5004 94.6403 17.7755" fill="white"/>
<path fill-rule="evenodd" clip-rule="evenodd" d="M54.2311 35.2173C52.4223 35.0111 50.8939 34.2655 49.6482 32.9748C48.1641 31.4395 47.4226 29.4528 47.4226 27.0138C47.4226 24.5759 48.1641 22.589 49.6482 21.0531C50.8939 19.7631 52.4223 19.0167 54.2311 18.8106V14.0381C50.9521 14.2571 48.1815 15.5004 45.9234 17.7755C43.4241 20.2929 42.1755 23.3729 42.1755 27.0138C42.1755 30.6556 43.4241 33.735 45.9234 36.2522C48.1815 38.5272 50.9521 39.7708 54.2311 39.9898V35.2173" fill="white"/>
<path fill-rule="evenodd" clip-rule="evenodd" d="M41.2387 17.7757C38.9681 15.4884 36.1807 14.244 32.8792 14.0349V18.8051C34.7098 19.0029 36.2557 19.7511 37.514 21.0533C38.9973 22.5892 39.7394 24.5761 39.7394 27.014C39.7394 29.453 38.9973 31.4397 37.514 32.975C36.2557 34.2778 34.7098 35.0254 32.8792 35.2234V39.9933C36.1807 39.7842 38.9681 38.5396 41.2387 36.2524C43.7371 33.7352 44.9867 30.6558 44.9867 27.014C44.9867 23.3731 43.7371 20.2931 41.2387 17.7757" fill="white"/>
<path fill-rule="evenodd" clip-rule="evenodd" d="M114.234 33.1857C115.717 34.722 117.599 35.4893 119.879 35.4893C122.159 35.4893 124.041 34.722 125.524 33.1857C127.008 31.6504 127.75 29.6637 127.75 27.2247C127.75 24.7867 127.008 22.7998 125.524 21.2639C124.041 19.7282 122.159 18.9603 119.879 18.9603C117.599 18.9603 115.717 19.7282 114.234 21.2639C112.75 22.7998 112.008 24.7867 112.008 27.2247C112.008 29.6637 112.75 31.6504 114.234 33.1857ZM129.25 36.463C126.751 38.9803 123.628 40.2393 119.88 40.2393C116.132 40.2393 113.008 38.9803 110.51 36.463C108.011 33.9458 106.762 30.8664 106.762 27.2246C106.762 23.5837 108.011 20.5037 110.51 17.9863C113.008 15.4691 116.132 14.2102 119.88 14.2102C123.628 14.2102 126.751 15.4691 129.25 17.9863C131.748 20.5037 132.998 23.5837 132.998 27.2246C132.998 30.8664 131.748 33.9458 129.25 36.463V36.463Z" fill="white"/>
<path fill-rule="evenodd" clip-rule="evenodd" d="M127.752 39.6488H132.999V14.3799H127.752V39.6488Z" fill="white"/>
<path fill-rule="evenodd" clip-rule="evenodd" d="M139.763 3.82207C139 5.31945 139 7.27963 139 11.2V14.8C139 18.7204 139 20.6806 139.763 22.1779C140.434 23.4951 141.505 24.5659 142.822 25.237C144.319 26 146.28 26 150.2 26H183.8C187.72 26 189.681 26 191.178 25.237C192.495 24.5659 193.566 23.4951 194.237 22.1779C195 20.6806 195 18.7204 195 14.8V11.2C195 7.27963 195 5.31945 194.237 3.82207C193.566 2.50493 192.495 1.43407 191.178 0.762954C189.681 0 187.72 0 183.8 0H150.2C146.28 0 144.319 0 142.822 0.762954C141.505 1.43407 140.434 2.50493 139.763 3.82207ZM152.324 10.076C152.501 10.188 152.637 10.2953 152.73 10.398L153.444 9.10999C153.015 8.79266 152.515 8.52666 151.946 8.31199C151.377 8.09732 150.756 7.98999 150.084 7.98999C149.571 7.98999 149.095 8.05532 148.656 8.18599C148.217 8.31666 147.835 8.51266 147.508 8.77399C147.191 9.02599 146.939 9.34332 146.752 9.72599C146.565 10.0993 146.472 10.5287 146.472 11.014C146.472 11.406 146.533 11.742 146.654 12.022C146.785 12.2927 146.971 12.5307 147.214 12.736C147.457 12.9413 147.76 13.1187 148.124 13.268C148.497 13.408 148.931 13.5433 149.426 13.674C149.855 13.786 150.238 13.8933 150.574 13.996C150.91 14.0987 151.195 14.2153 151.428 14.346C151.661 14.4673 151.839 14.612 151.96 14.78C152.091 14.948 152.156 15.158 152.156 15.41C152.156 15.83 151.988 16.1473 151.652 16.362C151.316 16.5767 150.84 16.684 150.224 16.684C149.841 16.684 149.473 16.642 149.118 16.558C148.763 16.4647 148.432 16.3573 148.124 16.236C147.825 16.1053 147.559 15.9653 147.326 15.816C147.102 15.6667 146.929 15.5313 146.808 15.41L146.094 16.754C146.663 17.1927 147.298 17.5287 147.998 17.762C148.707 17.986 149.44 18.098 150.196 18.098C150.7 18.098 151.171 18.0467 151.61 17.944C152.049 17.832 152.431 17.664 152.758 17.44C153.094 17.2067 153.355 16.908 153.542 16.544C153.738 16.18 153.836 15.746 153.836 15.242C153.836 14.794 153.757 14.416 153.598 14.108C153.449 13.7907 153.234 13.5247 152.954 13.31C152.674 13.0953 152.329 12.9133 151.918 12.764C151.517 12.6147 151.064 12.4793 150.56 12.358C150.149 12.2553 149.79 12.162 149.482 12.078C149.174 11.9847 148.917 11.882 148.712 11.77C148.507 11.6487 148.353 11.5133 148.25 11.364C148.157 11.2053 148.11 11.0047 148.11 10.762C148.11 10.3327 148.264 9.99666 148.572 9.75399C148.889 9.51132 149.379 9.38999 150.042 9.38999C150.341 9.38999 150.63 9.42266 150.91 9.48799C151.199 9.55332 151.461 9.63732 151.694 9.73999C151.937 9.84266 152.147 9.95466 152.324 10.076ZM159.832 17.65C160.42 17.93 161.069 18.07 161.778 18.07C162.46 18.07 163.09 17.9347 163.668 17.664C164.256 17.384 164.765 17.0153 165.194 16.558C165.624 16.0913 165.955 15.5547 166.188 14.948C166.431 14.3413 166.552 13.7067 166.552 13.044C166.552 12.4187 166.436 11.8073 166.202 11.21C165.978 10.6033 165.656 10.062 165.236 9.58599C164.826 9.10999 164.326 8.72732 163.738 8.43799C163.16 8.13932 162.516 7.98999 161.806 7.98999C161.116 7.98999 160.476 8.12999 159.888 8.40999C159.31 8.68066 158.806 9.04932 158.376 9.51599C157.956 9.98266 157.625 10.5193 157.382 11.126C157.14 11.7327 157.018 12.3673 157.018 13.03C157.018 13.6647 157.13 14.2853 157.354 14.892C157.588 15.4987 157.914 16.04 158.334 16.516C158.754 16.9827 159.254 17.3607 159.832 17.65ZM158.838 14.388C158.689 13.9493 158.614 13.4967 158.614 13.03C158.614 12.582 158.684 12.1433 158.824 11.714C158.974 11.2753 159.184 10.888 159.454 10.552C159.725 10.216 160.056 9.94532 160.448 9.73999C160.84 9.52532 161.288 9.41799 161.792 9.41799C162.268 9.41799 162.698 9.52066 163.08 9.72599C163.472 9.92199 163.804 10.188 164.074 10.524C164.354 10.8507 164.569 11.2333 164.718 11.672C164.868 12.1013 164.942 12.554 164.942 13.03C164.942 13.478 164.872 13.9167 164.732 14.346C164.592 14.7753 164.387 15.1627 164.116 15.508C163.846 15.8533 163.514 16.1333 163.122 16.348C162.74 16.5533 162.296 16.656 161.792 16.656C161.307 16.656 160.868 16.558 160.476 16.362C160.084 16.1567 159.748 15.886 159.468 15.55C159.198 15.214 158.988 14.8267 158.838 14.388ZM170.416 8.05999H177.038V9.44599H171.984V12.414H176.212V13.716H171.984V18H170.416V8.05999ZM184.753 9.44599H188.057V8.05999H179.853V9.44599H183.171V18H184.753V9.44599Z" fill="white"/>
</svg>
